<?xml version="1.0" encoding="UTF-8" standalone="no"?>
<svg
   width="64"
   height="64"
   viewBox="0 0 64 64"
   version="1.1"
   id="svg31"
   sodipodi:docname="spotify-client.svg"
   inkscape:version="1.4.2 (ebf0e940d0, 2025-05-08)"
   xmlns:inkscape="http://www.inkscape.org/namespaces/inkscape"
   xmlns:sodipodi="http://sodipodi.sourceforge.net/DTD/sodipodi-0.dtd"
   xmlns="http://www.w3.org/2000/svg"
   xmlns:svg="http://www.w3.org/2000/svg">
  <defs
     id="defs31" />
  <sodipodi:namedview
     id="namedview31"
     pagecolor="#ffffff"
     bordercolor="#000000"
     borderopacity="0.25"
     inkscape:showpageshadow="2"
     inkscape:pageopacity="0.0"
     inkscape:pagecheckerboard="0"
     inkscape:deskcolor="#d1d1d1"
     inkscape:zoom="32"
     inkscape:cx="25.75"
     inkscape:cy="47.921875"
     inkscape:window-width="2560"
     inkscape:window-height="1367"
     inkscape:window-x="0"
     inkscape:window-y="0"
     inkscape:window-maximized="1"
     inkscape:current-layer="svg31" />
  <path
     fill="#fcfcfc"
     d="M 0,0 H 1024 V 1024 H 0 Z"
     id="path1"
     style="display:none"
     transform="scale(0.0625)" />
  <path
     fill="#3b8163"
     d="m 45.380655,39.614645 c 0.187375,0.0036 0.357875,-0.0036 0.543125,-0.03406 -0.05837,0.572437 -0.03256,1.161062 -0.03819,1.736625 l 3.16525,-0.0092 -0.0011,3.047625 c 0,0.518937 0.03213,1.061312 -0.011,1.57775 0.46075,-0.02469 0.930688,0.02862 1.387625,-0.02562 0.07544,-0.12425 0.03838,-1.642875 0.03906,-1.913313 l 0.713062,0.0029 c -0.0048,0.63275 0.04,1.316125 -0.03575,1.942687 0.251938,-0.0024 0.504188,-0.0077 0.756063,-0.0062 0.0044,-0.676813 0.0048,-1.353625 0.0014,-2.0305 l 0.53375,-0.0064 c -0.003,-0.467875 -0.03162,-0.9355 -0.03306,-1.402813 0.097,-0.0063 0.196313,0.0021 0.274063,-0.06375 0.06406,-0.270312 -0.06856,-1.132187 0.08475,-1.30125 0.123437,-0.04287 0.243812,-0.03981 0.372812,-0.04256 l 0.008,1.393125 c 1.125812,-0.021 2.255375,-0.01544 3.38025,-0.04819 0.01769,1.343688 0.163937,2.72975 0.03406,4.068813 0.138875,-0.02075 0.272125,-0.0415 0.413063,-0.03975 l -0.0069,-0.499563 h 1.706125 c -0.06256,0.279875 -0.131437,1.103063 -0.02887,1.348 l 0.04969,0.03287 c -1.810125,0.654063 -3.662563,1.184313 -5.544563,1.587125 -0.492,0.104625 -1.009312,0.237438 -1.511,0.282625 -0.0021,-0.621875 0.0044,-1.24375 0.01956,-1.865437 -0.225375,-0.01062 -0.450375,-0.02156 -0.676,-0.02287 l 0.002,1.985937 c -1.248188,0.223625 -2.49625,0.325875 -3.754875,0.463063 -0.658938,0.118562 -1.398625,0.106687 -2.067438,0.11225 -1.305375,0.01081 -2.64875,0.0025 -3.946312,-0.1415 -0.300875,-0.04338 -0.607813,-0.06856 -0.9105,-0.09619 -0.03694,-1.094375 -0.006,-2.201812 -0.0023,-3.297312 l 0.01525,-4.677688 c 0.322312,-0.111062 0.616375,-0.33025 0.89525,-0.521625 0.444625,0.499125 1.700812,1.70125 2.257437,2.008188 0.01387,-0.606125 0.02812,-1.237688 -0.0099,-1.842375 l 1.945188,-0.0062 z"
     id="path8-6"
     style="stroke-width:0.0625" />
  <path
     fill="#44976d"
     transform="scale(0.0625)"
     d="m 64.0874,652.275 c -0.0284,-0.584 -0.0413,-1.168 -0.0387,-1.753 l -0.0875,-238.968 0.0123,-88.25 c -0.0019,-33.803 -1.3436,-65.725 6.965,-98.788 8.8669,-35.285 28.713,-68.699 54.2665,-94.458 34.987,-34.7175 80.456,-56.9166 129.349,-63.1526 18.186,-2.2708 36.668,-1.5144 54.953,-1.4851 l 77.207,-0.0163 243.736,0.0972 78.814,-0.0356 c 29.505,6e-4 59.178,-1.2808 88.077,5.7128 38.047,9.5977 72.809,29.2626 100.634,56.9296 27.821,27.802 47.568,62.637 57.136,100.786 7.185,28.996 6.41,56.953 6.348,86.533 l -0.24,72.96 -0.199,244.907 -0.073,76.692 c -0.039,15.596 0.572,31.411 -0.65,46.96 -4.208,53.56 -24.816,101.702 -62.976,139.901 -41.856,41.898 -96.269,62.96 -155.174,62.892 l -330.223,0.186 -86.494,0.014 c -31.944,0.058 -63.507,1.655 -94.855,-5.807 C 190.112,944.5 154.298,923.695 125.009,894.246 110.789,879.949 99.3893,864.173 89.7875,846.463 74.2792,818.214 65.4958,786.768 64.1201,754.57 63.5366,742.446 63.9196,730.19 63.9358,718.046 l 0.0655,-61.129 c 0.0047,-0.667 0.0153,-1.334 0.0317,-2.001 z"
     id="path2"
     style="display:inline" />
  <path
     fill="#11141b"
     d="M 45.46998,48.572347 C 50.585889,46.905058 56.258898,43.265664 60.111151,39.5 l -0.0046,4.829935 c -0.0024,0.982211 0.03583,1.978214 -0.04073,2.957464 -0.263697,3.373122 -1.555116,6.405025 -3.946442,8.810734 -2.622939,2.638669 -6.032773,3.965118 -9.724101,3.960837 l -20.693686,0.01171 -5.420214,8.81e-4 C 18.279571,60.075161 16.30165,60.17579 14.337205,59.705846 11.801593,59.099242 9.5572818,57.788978 7.7218637,55.934327 6.830756,55.033925 6.1163847,54.04038 5.5146805,52.925033 4.5428405,51.145957 3.9924218,49.16554 3.9062124,47.137763 3.8696463,46.374214 3.893648,45.60235 3.8946628,44.837541 l 0.00412,-3.849804 c 2.945e-4,-0.042 9.587e-4,-0.08402 0.00199,-0.126018 1.1567356,0.982903 2.2950094,1.941999 3.5744567,2.765001 0.5682535,0.369683 1.132935,0.76632 1.7206774,1.102372 0.7251053,0.491799 1.5287311,0.894294 2.3066021,1.294458 2.522049,1.299369 5.153447,2.372205 7.863428,3.205912 2.524804,0.788994 5.038017,1.360523 7.666156,1.665527 0.303492,0.02784 0.611243,0.05322 0.912919,0.09693 1.301002,0.145101 2.647939,0.153478 3.956777,0.142583 0.670588,-0.0056 1.412235,0.0063 2.072921,-0.11311 1.261965,-0.138237 2.513339,-0.24127 3.764835,-0.466606 l -0.002,-2.001138 c 0.226219,0.0013 0.451816,0.01235 0.677792,0.02304 -0.01519,0.626445 -0.02169,1.25308 -0.01962,1.879714 0.503021,-0.04554 1.021703,-0.179361 1.515008,-0.284787 1.886993,-0.405896 3.744344,-0.940204 5.559271,-1.599273 z"
     id="path3"
     style="stroke-width:0.0628217" />
  <path
     fill="#7C8183"
     transform="scale(0.0625 0.0625)"
     d="M503.995 897.506C508.641 897.429 513.297 897.484 517.944 897.482C518.272 901.119 518.706 904.788 518.674 908.443C513.436 908.577 508.172 908.446 502.931 908.423C503.087 904.767 503.442 901.123 503.995 897.506Z"
     id="path4" />
  <path
     fill="#7C8183"
     transform="scale(0.0625 0.0625)"
     d="M505.321 878.163C509.21 878.041 513.116 878.092 517.008 878.077L517.104 886.513L504.919 886.498C504.94 883.7 505.101 880.951 505.321 878.163Z"
     id="path5" />
  <path
     fill="#7C8183"
     transform="scale(0.0625 0.0625)"
     d="M506.351 861.406C509.547 861.22 512.753 861.342 515.952 861.4L516.002 868.346L506.186 868.31C506.141 866.011 506.271 863.703 506.351 861.406Z"
     id="path6" />
  <path
     fill="#7C8183"
     transform="scale(0.0625 0.0625)"
     d="M507.855 847.032C509.787 846.913 511.796 846.656 513.665 847.287C514.941 847.717 515.297 848.267 515.874 849.417C515.738 850.822 515.53 851.606 514.854 852.887C512.829 853.139 510.232 853.733 508.289 852.927C507.033 852.406 506.889 852.033 506.399 850.873C506.532 849.214 506.937 848.407 507.855 847.032Z"
     id="path7" />
  <path
     fill="#3B8163"
     transform="scale(0.0625 0.0625)"
     d="M514.466 653.713C517.464 653.77 520.192 653.655 523.156 653.168C522.222 662.327 522.635 671.745 522.545 680.954L573.189 680.806L573.171 729.568C573.171 737.871 573.685 746.549 572.995 754.812C580.367 754.417 587.886 755.27 595.197 754.402C596.404 752.414 595.811 728.116 595.822 723.789L607.231 723.836C607.154 733.96 607.871 744.894 606.659 754.919C610.69 754.881 614.726 754.796 618.756 754.82C618.826 743.991 618.833 733.162 618.778 722.332L627.318 722.23C627.27 714.744 626.812 707.262 626.789 699.785C628.341 699.685 629.93 699.818 631.174 698.765C632.199 694.44 630.077 680.65 632.53 677.945C634.505 677.259 636.431 677.308 638.495 677.264L638.623 699.554C656.636 699.218 674.709 699.307 692.707 698.783C692.99 720.282 695.33 742.459 693.252 763.884C695.474 763.552 697.606 763.22 699.861 763.248L699.75 755.255L727.048 755.255C726.047 759.733 724.945 772.904 726.586 776.823L727.381 777.349C698.419 787.814 668.78 796.298 638.668 802.743C630.796 804.417 622.519 806.542 614.492 807.265C614.459 797.315 614.563 787.365 614.805 777.418C611.199 777.248 607.599 777.073 603.989 777.052L604.021 808.827C584.05 812.405 564.081 814.041 543.943 816.236C533.4 818.133 521.565 817.943 510.864 818.032C489.978 818.205 468.484 818.072 447.723 815.768C442.909 815.074 437.998 814.671 433.155 814.229C432.564 796.719 433.059 779 433.119 761.472L433.363 686.629C438.52 684.852 443.225 681.345 447.687 678.283C454.801 686.269 474.9 705.503 483.806 710.414C484.028 700.716 484.256 690.611 483.648 680.936L514.771 680.837L514.466 653.713Z"
     id="path8" />
  <path
     fill="#2d3d46"
     d="m 27.982687,51.007597 c 0.015,-1.142937 0.02031,-2.286 0.01594,-3.429062 2.5e-4,-0.516 -0.06275,-1.182188 0.03456,-1.683625 0.04981,-0.25675 0.222063,-0.504563 0.404875,-0.6855 0.165875,-0.164063 0.335625,-0.266438 0.562188,-0.32375 0.586062,-0.14825 1.38025,-0.07806 1.986812,-0.078 0.502625,6.2e-5 1.008625,-0.02081 1.510813,-0.008 0.439437,0.01119 0.810125,0.154562 1.117562,0.475812 0.154188,0.161063 0.278938,0.354563 0.330938,0.573188 0.130375,0.548625 0.0555,1.301187 0.05469,1.874062 l -0.0046,3.314125 c -0.658937,0.118563 -1.398624,0.106688 -2.067437,0.11225 -1.305375,0.01081 -2.64875,0.0025 -3.946313,-0.1415 z"
     id="path9"
     style="stroke-width:0.0625" />
  <path
     fill="#3B8163"
     transform="scale(0.0625 0.0625)"
     d="M471.121 737.978C471.649 737.951 472.177 737.909 472.706 737.917C473.788 737.935 474.585 738.272 475.314 739.052C477.878 741.791 477.435 748.089 477.244 751.603C477.037 755.407 477.066 757.948 474.083 760.645C472.228 760.54 470.947 760.432 469.662 758.887C466.864 755.525 467.738 747.115 468.313 743.04C468.671 740.504 469.061 739.546 471.121 737.978Z"
     id="path10" />
  <path
     fill="#3B8163"
     transform="scale(0.0625 0.0625)"
     d="M517.98 737.965C518.245 737.957 518.51 737.942 518.774 737.94C520.402 737.931 521.74 738.03 522.796 739.408C525.182 742.52 524.478 750.036 524.2 753.737C523.986 756.58 524.08 758.143 521.798 760.093C520.517 760.327 518.699 760.65 517.607 759.747C515.9 758.334 515.616 755.24 515.508 753.171C515.278 748.764 514.917 741.302 517.98 737.965Z"
     id="path11" />
  <path
     fill="#3B8163"
     transform="scale(0.0625 0.0625)"
     d="M519.044 774.446C520.261 774.667 521.672 774.816 522.561 775.768C525.227 778.624 524.446 787.52 524.091 791.301C523.799 794.407 523.512 795.659 521.074 797.688C520.753 797.658 520.431 797.634 520.111 797.599C518.733 797.449 517.892 797.101 517.05 795.939C514.594 792.546 515.389 782.551 516.05 778.459C516.43 776.107 517.19 775.748 519.044 774.446Z"
     id="path12" />
  <path
     fill="#3B8163"
     transform="scale(0.0625 0.0625)"
     d="M470.713 775.474C472.385 775.4 474.368 775.192 475.563 776.589C477.146 778.44 477.31 782.026 477.328 784.346C477.359 788.37 477.7 793.985 474.752 797.013C472.871 797.005 471.458 797.051 469.757 796.187C467.895 794.247 468.265 790.433 468.274 787.895C468.288 783.812 467.642 778.514 470.713 775.474Z"
     id="path13" />
  <path
     fill="#3B8163"
     transform="scale(0.0625 0.0625)"
     d="M494.784 737.461C496.549 737.743 497.906 737.938 498.978 739.554C501.313 743.074 500.558 752.834 499.73 756.967C499.402 758.608 498.317 759.309 497.007 760.178C495.661 760.138 494.361 760.196 493.382 759.1C490.601 755.985 491.466 745.245 492.103 741.162C492.435 739.032 493.127 738.647 494.784 737.461Z"
     id="path14" />
  <path
     fill="#3B8163"
     transform="scale(0.0625 0.0625)"
     d="M495 774.848C495.982 775.095 497.392 775.325 498.157 776.023C499.905 777.62 499.973 781.984 500.023 784.245C500.117 788.414 500.543 794.448 497.517 797.594C496.131 797.387 494.558 797.318 493.648 796.106C491.302 792.985 492.011 785.229 492.288 781.524C492.524 778.36 492.47 777.017 495 774.848Z"
     id="path15" />
  <path
     fill="#2d3d46"
     d="m 20.555937,38.455819 0.78975,9.38e-4 -0.0036,0.648875 3.100875,-0.0037 c 0.557875,-0.0029 1.32175,-0.07494 1.862625,0.03319 0.18175,0.03637 0.341937,0.124687 0.474437,0.25425 0.133938,0.129 0.22825,0.293625 0.27175,0.4745 0.09362,0.395312 0.04581,0.862875 0.04387,1.26875 l -0.0105,1.825875 -0.01525,4.677687 c -0.0038,1.0955 -0.03469,2.202938 0.0022,3.297313 -2.621187,-0.302688 -5.12775,-0.869875 -7.645874,-1.652875 -0.04138,-1.05525 -0.01463,-2.119688 -0.01638,-3.175938 0.04862,-1.373312 0.01856,-2.767375 0.01219,-4.142375 -0.0028,-0.607062 -0.04419,-1.23725 0.0047,-1.840562 0.015,-0.185313 0.04056,-0.41175 0.139437,-0.571313 0.220313,-0.3555 0.618876,-0.428375 0.993688,-0.521625 z"
     id="path16"
     style="stroke-width:0.0625" />
  <path
     fill="#3B8163"
     transform="scale(0.0625 0.0625)"
     d="M341.395 695.883C343.603 696.026 345.281 696.002 346.838 697.866C349.803 701.419 348.856 717.074 348.375 721.858C348.08 724.795 347.58 726.045 345.251 727.929C343.582 728.054 341.879 728.256 340.499 727.069C337.901 724.831 338.62 708.639 338.721 704.429C338.803 700.993 338.763 698.395 341.395 695.883Z"
     id="path17" />
  <path
     fill="#3B8163"
     transform="scale(0.0625 0.0625)"
     d="M341.394 650.01C343.363 649.918 345.355 649.605 346.901 651.109C348.493 652.658 348.547 655.003 348.601 657.089C348.72 661.65 349.494 674.919 347.929 678.825C347.584 679.685 346.855 680.379 346.232 681.035C344.257 681.134 342.018 681.396 340.512 679.809C337.472 676.603 338.773 662.883 338.861 658.09C338.927 654.54 338.738 652.575 341.394 650.01Z"
     id="path18" />
  <path
     fill="#3b8163"
     d="m 25.095343,46.34125 c 0.116533,0.004 0.186828,0.0055 0.282797,0.08524 0.125975,0.213606 0.09118,1.459002 0.03072,1.7457 -0.02852,0.134913 -0.08763,0.188635 -0.195235,0.261052 -0.126622,-0.02281 -0.250721,-0.05136 -0.329358,-0.169063 -0.115564,-0.173044 -0.08038,-1.479114 -0.04883,-1.737669 0.06221,-0.101437 0.159473,-0.135655 0.259904,-0.18526 z"
     id="path19"
     style="stroke-width:0.0660645" />
  <path
     fill="#3B8163"
     transform="scale(0.0625 0.0625)"
     d="M401.221 649.587C402.774 649.876 403.991 650.098 405.084 651.377C408.661 655.558 407.444 669.881 406.928 675.316C406.615 678.617 406.085 680.117 403.494 682.216C401.588 682.012 400.196 681.413 398.834 680.08C397.119 676.375 397.064 656.797 398.384 652.538C398.887 650.915 399.837 650.345 401.221 649.587Z"
     id="path20" />
  <path
     fill="#3B8163"
     transform="scale(0.0625 0.0625)"
     d="M400.898 695.388C402.878 695.593 404.914 696.022 406.117 697.793C407.755 700.205 407.504 720.618 406.875 724.211C406.576 725.921 405.265 726.584 404.003 727.577C402.316 727.555 400.47 727.377 399.194 726.158C397.126 724.182 397.762 705.41 398.023 701.62C398.228 698.628 398.618 697.394 400.898 695.388Z"
     id="path21" />
  <path
     fill="#3B8163"
     transform="scale(0.0625 0.0625)"
     d="M371.767 649.426C373.36 649.482 374.94 649.423 376.174 650.611C380.042 654.335 378.817 669.971 378.362 675.179C378.101 678.17 377.746 679.58 375.408 681.518C374.956 681.536 374.504 681.561 374.052 681.549C372.406 681.505 371.388 681.128 370.213 679.921C368.094 675.003 369.193 664.291 369.306 658.663C369.377 655.154 369.064 652.026 371.767 649.426Z"
     id="path22" />
  <path
     fill="#3B8163"
     d="M372.427 741.414C374.09 741.722 375.747 742.147 376.769 743.617C379.32 747.29 378.777 764.437 377.683 768.983C377.215 770.926 376.172 771.654 374.593 772.65C372.677 772.486 371.5 772.395 369.944 771.19C368.005 768.266 368.33 749.161 369.04 745.02C369.359 743.164 370.981 742.38 372.427 741.414Z"
     id="path23"
     transform="scale(0.0625 0.0625)" />
  <path
     fill="#3B8163"
     transform="scale(0.0625 0.0625)"
     d="M373.166 695.903C374.859 696.326 376.99 696.739 377.806 698.511C379.277 701.706 378.727 721.16 377.883 725.071C376.955 726.51 375.852 726.913 374.357 727.588C372.637 727.268 371.588 727.028 370.212 725.92C368.205 722.932 369.132 703.037 369.555 698.595C370.341 697.118 371.739 696.626 373.166 695.903Z"
     id="path24" />
  <path
     fill="#3B8163"
     transform="scale(0.0625 0.0625)"
     d="M341.36 741.989C343.651 741.912 345.23 741.789 347.099 743.31C349.404 747.417 348.47 759.568 348.208 764.807C348.05 767.97 347.887 769.856 345.427 772.054C345.154 772.045 344.88 772.042 344.606 772.028C342.92 771.943 341.732 771.723 340.578 770.325C337.188 766.219 338.397 753.119 338.766 747.911C338.962 745.15 339.198 743.864 341.36 741.989Z"
     id="path25" />
  <path
     fill="#3B8163"
     d="M177.347 670.219C176.893 665.829 176.68 643.601 178.297 640.698C180.27 640.085 182.192 640.259 184.224 640.337L184.108 657.323C192.147 656.91 200.198 656.759 208.247 656.87L208.201 732.656C208.186 734.755 207.321 746.089 208.587 747.242C210.677 749.146 215.499 750.743 218.289 751.213C229.184 746.793 241.998 735.855 251.721 728.92C259.14 723.628 266.832 718.742 274.188 713.36C278.92 716.362 308.08 736.355 310.559 736.968C310.587 753.868 310.159 770.899 310.821 787.783C267.576 774.545 225.585 757.51 185.339 736.878C172.926 730.524 160.102 724.133 148.531 716.324C148.603 716.099 148.68 715.875 148.747 715.649C149.479 713.155 148.952 709.157 148.921 706.502C148.859 701.157 147.585 674.012 149.584 670.289C156.144 669.025 169.756 670.424 177.347 670.219Z"
     id="path26"
     transform="scale(0.0625 0.0625)" />
  <path
     fill="#3B8163"
     transform="scale(0.0625 0.0625)"
     d="M64.0874 652.275C64.1152 652.126 64.1454 651.978 64.1708 651.829C65.5168 643.929 62.7662 628.695 65.0428 622.736C73.2255 622.444 81.4386 622.723 89.6256 622.783C95.0309 622.823 100.938 622.2 106.234 623.35C109.161 623.985 112.005 625.264 114.193 627.345C116.365 629.412 117.712 632.082 118.377 634.987C120.304 643.394 119.707 660.021 119.792 669.113C119.831 673.324 120.223 677.529 120.239 681.733C120.259 686.748 118.458 694.491 121.073 698.82C100.656 685.752 82.4918 670.523 64.033 654.916L64.0874 652.275Z"
     id="path27" />
  <path
     fill="#11141B"
     transform="scale(0.0625 0.0625)"
     d="M520.622 187.741C590.289 188.723 655.906 201.5 719.874 229.723C731.677 234.931 746.31 240.565 755.903 249.29C762.923 255.674 766.956 263.962 767.282 273.482C767.547 281.232 765.037 288.83 759.525 294.421C753.282 300.756 743.836 303.808 735.08 301.907C727.578 300.278 718.943 294.792 711.758 291.476C701.199 286.526 690.46 281.97 679.562 277.819C624.013 256.375 564.891 247.428 505.498 248.199C456.411 249.677 407.781 258.106 361.06 273.231C349.076 277.056 337.027 281.519 325.331 286.148C314.69 290.359 295.617 300.526 285.212 300.962C278.298 301.253 270.093 297.689 265.115 293.018C259.927 288.15 257.403 281.322 257.112 274.311C256.707 264.576 261.361 255.259 267.93 248.307C278.067 237.579 294.307 232.815 307.744 227.556C355.991 208.564 406.605 196.247 458.184 190.946C478.919 188.883 499.802 188.259 520.622 187.741Z"
     id="path28" />
  <path
     fill="#11141B"
     transform="scale(0.0625 0.0625)"
     d="M502.342 295.722C567.166 293.919 631.687 305.211 692.045 328.922C702.033 332.774 715.389 336.244 723.275 343.639C728.457 348.499 731.866 355.754 732.004 362.898C732.081 369.758 729.313 376.344 724.358 381.09C718.651 386.606 711.1 389.293 703.192 388.19C691.119 386.506 668.494 375.257 655.284 370.867C610.087 355.844 568.677 348.563 521.078 347.108C468.948 346.283 417.978 355.527 368.645 371.951C362.65 373.889 356.716 376.009 350.85 378.307C342.598 381.565 326.775 389.382 318.457 389.929C312.082 390.348 303.649 387.129 299.109 382.901C294.407 378.524 292.037 372.356 291.815 366.003C291.568 358.913 293.967 352.248 298.766 347.014C306.585 338.486 319.915 334.542 330.444 330.483C385.743 309.166 443.228 298.278 502.342 295.722Z"
     id="path29" />
  <path
     fill="#11141B"
     transform="scale(0.0625 0.0625)"
     d="M510.406 387.236C563.952 385.805 617.394 397.52 666.991 417.065C676.415 420.778 688.595 424.474 696.055 431.573C700.525 435.826 703.039 441.085 703.127 447.274C703.214 453.337 700.665 459.592 696.351 463.853C691.355 468.788 683.043 471.452 676.051 470.514C668.916 469.557 661.423 465.244 654.775 462.508C647.055 459.361 639.281 456.348 631.457 453.47C593.806 439.673 554.015 432.633 513.916 432.672C473.869 433.119 434.122 439.636 396.03 452.001C387.266 454.897 378.576 458.205 370.001 461.617C361.67 464.931 352.652 470.277 343.586 470.858C338.182 471.205 331.111 468.283 327.152 464.832C322.793 461.061 320.215 455.635 320.047 449.873C319.799 443.07 322.568 436.011 327.213 431.068C333.957 423.89 345.379 421.136 354.308 417.651C406.445 397.305 454.514 388.588 510.406 387.236Z"
     id="path30" />
  <path
     fill="#11141B"
     transform="scale(0.0625 0.0625)"
     d="M504.869 474.723C506.48 474.654 508.092 474.598 509.704 474.556C555.48 473.328 600.212 483.241 642.247 501.003C649.905 504.239 660.334 507.47 666.344 513.426C670.163 517.241 672.258 522.45 672.144 527.846C672.091 533.129 669.868 538.157 665.998 541.753C661.187 546.238 653.79 548.43 647.308 547.267C640.58 546.06 633.853 541.989 627.654 539.198C622.996 537.136 618.279 535.207 613.509 533.415C582.097 521.28 550.958 515.853 517.36 515.084C481.599 515.668 446.178 522.124 412.51 534.193C402.251 537.901 383.481 548.043 374.016 549.056C368.664 549.629 362.787 547.7 358.634 544.333C354.421 540.908 351.772 535.924 351.292 530.516C350.71 524.739 352.572 518.982 356.426 514.639C362.201 508.223 372.788 505.171 380.683 502.097C420.956 486.418 461.729 477.453 504.869 474.723Z"
     id="path31" />
</svg>
