<?xml version="1.0" encoding="UTF-8" standalone="no"?>
<svg
   width="64"
   height="64"
   version="1.1"
   id="svg17"
   sodipodi:docname="youtube-music-desktop-app.svg"
   inkscape:version="1.4.2 (ebf0e940d0, 2025-05-08)"
   xml:space="preserve"
   xmlns:inkscape="http://www.inkscape.org/namespaces/inkscape"
   xmlns:sodipodi="http://sodipodi.sourceforge.net/DTD/sodipodi-0.dtd"
   xmlns:xlink="http://www.w3.org/1999/xlink"
   xmlns="http://www.w3.org/2000/svg"
   xmlns:svg="http://www.w3.org/2000/svg"
   xmlns:rdf="http://www.w3.org/1999/02/22-rdf-syntax-ns#"
   xmlns:cc="http://creativecommons.org/ns#"
   xmlns:dc="http://purl.org/dc/elements/1.1/"><sodipodi:namedview
     pagecolor="#ffffff"
     bordercolor="#666666"
     borderopacity="1"
     objecttolerance="10"
     gridtolerance="10"
     guidetolerance="10"
     inkscape:pageopacity="0"
     inkscape:pageshadow="2"
     inkscape:window-width="2560"
     inkscape:window-height="1404"
     id="namedview19"
     showgrid="false"
     inkscape:zoom="6.4921875"
     inkscape:cx="13.7858"
     inkscape:cy="23.181709"
     inkscape:window-x="0"
     inkscape:window-y="0"
     inkscape:window-maximized="1"
     inkscape:current-layer="svg17"
     inkscape:showpageshadow="2"
     inkscape:pagecheckerboard="0"
     inkscape:deskcolor="#d1d1d1" /><metadata
     id="metadata2"><rdf:RDF><cc:Work
         rdf:about=""><dc:format>image/svg+xml</dc:format><dc:type
           rdf:resource="http://purl.org/dc/dcmitype/StillImage" /></cc:Work></rdf:RDF></metadata><defs
     id="defs9"><linearGradient
       id="linearGradient3"
       inkscape:collect="always"><stop
         style="stop-color:#000000;stop-opacity:0.84022629;"
         offset="0"
         id="stop3" /><stop
         style="stop-color:#000000;stop-opacity:1;"
         offset="1"
         id="stop5" /></linearGradient><linearGradient
       id="linearGradient844"
       x1="15"
       x2="35"
       y1="8"
       y2="38"
       gradientTransform="matrix(1.3636,0,0,1.3636,90.027407,-0.7274)"
       gradientUnits="userSpaceOnUse"><stop
         stop-color="#18d862"
         offset="0"
         id="stop4" /><stop
         stop-color="#1cd664"
         offset="1"
         id="stop6" /></linearGradient><linearGradient
       inkscape:collect="always"
       id="linearGradient1113"><stop
         style="stop-color:#d81835;stop-opacity:1;"
         offset="0"
         id="stop1109" /><stop
         style="stop-color:#921515;stop-opacity:1;"
         offset="1"
         id="stop1111" /></linearGradient><linearGradient
       id="a"><stop
         stop-color="#111"
         offset="0"
         id="stop4-6" /><stop
         stop-color="#626262"
         offset="1"
         id="stop6-7" /></linearGradient><linearGradient
       id="linearGradient825"
       x1="-741.83"
       x2="-741.83"
       y1="959.05"
       y2="93.836"
       gradientTransform="matrix(0.06680372,0,0,0.06680372,151.19721,-2.3478103)"
       gradientUnits="userSpaceOnUse"><stop
         stop-color="#ccd4da"
         offset="0"
         id="stop9" /><stop
         stop-color="#fff"
         offset="1"
         id="stop11" /></linearGradient><linearGradient
       id="linearGradient835"
       x1="-738.76"
       x2="-738.76"
       y1="931.43"
       y2="152.13"
       gradientTransform="matrix(0.06680372,0,0,0.06680372,151.19721,-2.3478103)"
       gradientUnits="userSpaceOnUse"><stop
         stop-color="#dfe3e8"
         offset="0"
         id="stop14" /><stop
         stop-color="#fefeff"
         offset="1"
         id="stop16" /></linearGradient><linearGradient
       id="e-3"
       x1="32"
       x2="32"
       y1="-3.5763"
       y2="57"
       gradientTransform="translate(-93.831,13.017)"
       gradientUnits="userSpaceOnUse"
       xlink:href="#a" /><linearGradient
       id="b-5"
       x1="124.73"
       x2="124.87"
       y1="193.81"
       y2="232.94"
       gradientTransform="matrix(1.3333,0,0,1.3333,-228.33,-240.93)"
       gradientUnits="userSpaceOnUse"
       xlink:href="#a" /><linearGradient
       id="linearGradient1107"><stop
         stop-color="#505050"
         offset="0"
         id="stop861" /><stop
         stop-color="#0a0a0a"
         offset="1"
         id="stop863" /></linearGradient><style
       type="text/css"
       id="style866" /><linearGradient
       id="linearGradient1034"
       x1="-71.993"
       x2="-73.616"
       y1="2.5497"
       y2="13.762"
       gradientTransform="translate(78.585,0.33847)"
       gradientUnits="userSpaceOnUse"><stop
         stop-color="#32d2ff"
         offset="0"
         id="stop868" /><stop
         stop-color="#32b4ff"
         offset="1"
         id="stop870" /></linearGradient><linearGradient
       id="linearGradient1042"
       x1="-74.394"
       x2="-75.461"
       y1="-16.69"
       y2="-4.4751"
       gradientTransform="translate(75.82,20.666)"
       gradientUnits="userSpaceOnUse"><stop
         stop-color="#0073d2"
         offset="0"
         id="stop873" /><stop
         stop-color="#143c73"
         offset="1"
         id="stop875" /></linearGradient><linearGradient
       id="linearGradient1050"
       x1="-66.237"
       x2="-59.585"
       y1="21.255"
       y2="31.868"
       gradientTransform="translate(75.995,-20.012)"
       gradientUnits="userSpaceOnUse"><stop
         stop-color="#fff"
         offset="0"
         id="stop878" /><stop
         stop-color="#d2d2d2"
         offset="1"
         id="stop880" /></linearGradient><filter
       id="filter1058"
       x="-.092516"
       y="-.076919"
       width="1.185"
       height="1.1538"
       color-interpolation-filters="sRGB"><feGaussianBlur
         stdDeviation="0.46236326"
         id="feGaussianBlur883" /></filter><filter
       id="filter1072"
       x="-.0996"
       y="-.072625"
       width="1.1992"
       height="1.1452"
       color-interpolation-filters="sRGB"><feGaussianBlur
         stdDeviation="0.38429972"
         id="feGaussianBlur886" /></filter><style
       type="text/css"
       id="style889" /><linearGradient
       id="linearGradient1109"
       x1="720.94"
       x2="626.77"
       y1="456.88"
       y2="819.08"
       gradientUnits="userSpaceOnUse"
       xlink:href="#linearGradient1107" /><linearGradient
       id="linearGradient1448"
       x1="3.9686999"
       x2="3.9686999"
       y1="16.374857"
       y2="0.54084998"
       gradientTransform="matrix(3.46461,0,0,3.46461,2.6662068,2.6662068)"
       gradientUnits="userSpaceOnUse"><stop
         stop-color="#c8c8c8"
         offset="0"
         id="stop892"
         style="stop-color:#ccd4da;stop-opacity:1" /><stop
         stop-color="#f0f0f0"
         offset="1"
         id="stop894"
         style="stop-color:#ffffff;stop-opacity:1" /></linearGradient><linearGradient
       inkscape:collect="always"
       xlink:href="#linearGradient1113"
       id="linearGradient1115"
       x1="-46.975662"
       y1="16.762468"
       x2="-17.754496"
       y2="45.983635"
       gradientUnits="userSpaceOnUse"
       gradientTransform="translate(63.693146)" /><linearGradient
       inkscape:collect="always"
       xlink:href="#linearGradient3"
       id="linearGradient5"
       x1="100.15493"
       y1="255.31339"
       x2="411.06598"
       y2="255.31339"
       gradientUnits="userSpaceOnUse" /></defs><rect
     style="display:inline;fill:url(#linearGradient1115);fill-opacity:1;stroke-width:0.472912;image-rendering:optimizeSpeed"
     id="rect1107"
     width="55"
     height="55"
     x="4.5"
     y="4.5"
     ry="13" /><g
     transform="matrix(3.779602,0,0,3.779602,-152.67638,3.390114)"
     fill="#5e4aa6"
     stroke-width="0.26458"
     id="g911"
     style="display:inline;image-rendering:optimizeSpeed"><circle
       cx="-330.35001"
       cy="-328.38"
       r="0"
       id="circle903" /><circle
       cx="-312.10999"
       cy="-326.25"
       r="0"
       id="circle905" /><circle
       cx="-306.01999"
       cy="-333.07001"
       r="0"
       id="circle907" /><circle
       cx="-308.84"
       cy="-326.01001"
       r="0"
       id="circle909" /></g><g
     transform="matrix(3.779602,0,0,3.779602,11.743866,-16.271187)"
     fill="#5e4aa6"
     stroke-width="0.26458"
     id="g919"
     style="display:inline;image-rendering:optimizeSpeed"><circle
       cx="-322.63"
       cy="-345.67001"
       r="0"
       id="circle913" /><circle
       cx="-31.726"
       cy="-10.849"
       r="0"
       fill-rule="evenodd"
       id="circle915" /><circle
       cx="-306.92001"
       cy="-328.72"
       r="0"
       id="circle917" /></g><g
     style="clip-rule:evenodd;display:inline;fill-rule:evenodd;image-rendering:optimizeQuality;shape-rendering:geometricPrecision;text-rendering:geometricPrecision;fill:url(#linearGradient5)"
     id="g1"
     transform="matrix(0.09755036,0,0,0.09755036,7.0651078,7.0940872)"><g
       fill-rule="nonzero"
       id="g2"
       transform="translate(-0.32403236,-0.74192276)"
       style="fill:url(#linearGradient5)"><path
         fill="#ff0000"
         d="M 255.94,511.99 A 256.003,256.003 0 0 0 492.5,354 255.946,255.946 0 0 0 507.08,206.09 255.993,255.993 0 0 0 437.04,75 256.07,256.07 0 0 0 305.97,4.92 256.064,256.064 0 0 0 158.05,19.48 255.926,255.926 0 0 0 43.15,113.77 256,256 0 0 0 0,256 c 0,33.61 6.61,66.9 19.47,97.96 a 255.843,255.843 0 0 0 55.47,83.05 255.991,255.991 0 0 0 83.04,55.5 255.902,255.902 0 0 0 97.96,19.48 z"
         id="path1"
         style="display:none;fill:url(#linearGradient5)" /><path
         fill="#ffffff"
         d="m 255.94,121.22 c 26.68,-0.03 52.76,7.85 74.96,22.64 a 134.84,134.84 0 0 1 49.74,60.49 134.797,134.797 0 0 1 7.73,77.92 134.58,134.58 0 0 1 -36.88,69.08 134.822,134.822 0 0 1 -69.05,36.95 134.83,134.83 0 0 1 -77.93,-7.68 A 134.778,134.778 0 0 1 143.99,330.94 134.88,134.88 0 0 1 121.27,256 c 0.06,-35.71 14.25,-69.95 39.49,-95.21 a 134.945,134.945 0 0 1 95.18,-39.57 z M 206.52,331.65 337.45,256 206.52,180.41 Z M 255.94,100.6 c -30.75,0 -60.81,9.12 -86.38,26.2 a 155.438,155.438 0 0 0 -57.25,69.78 155.413,155.413 0 0 0 -8.84,89.82 155.524,155.524 0 0 0 42.56,79.6 155.467,155.467 0 0 0 79.62,42.53 155.43,155.43 0 0 0 89.82,-8.87 155.371,155.371 0 0 0 69.75,-57.28 155.408,155.408 0 0 0 26.17,-86.38 c 0,-20.42 -4.02,-40.63 -11.83,-59.49 a 155.455,155.455 0 0 0 -33.7,-50.42 155.536,155.536 0 0 0 -50.44,-33.68 155.44,155.44 0 0 0 -59.48,-11.81 z"
         id="path2"
         style="display:inline;fill:url(#linearGradient5)" /></g></g></svg>
