<?xml version="1.0" encoding="UTF-8" standalone="no"?>
<svg
   width="64"
   height="64"
   version="1.1"
   viewBox="0 0 64 64"
   id="svg19"
   sodipodi:docname="gnome-tweak-tool.svg"
   xml:space="preserve"
   inkscape:version="1.4.2 (ebf0e940d0, 2025-05-08)"
   xmlns:inkscape="http://www.inkscape.org/namespaces/inkscape"
   xmlns:sodipodi="http://sodipodi.sourceforge.net/DTD/sodipodi-0.dtd"
   xmlns:xlink="http://www.w3.org/1999/xlink"
   xmlns="http://www.w3.org/2000/svg"
   xmlns:svg="http://www.w3.org/2000/svg"
   xmlns:rdf="http://www.w3.org/1999/02/22-rdf-syntax-ns#"
   xmlns:cc="http://creativecommons.org/ns#"
   xmlns:dc="http://purl.org/dc/elements/1.1/"><sodipodi:namedview
     id="namedview19"
     pagecolor="#ffffff"
     bordercolor="#000000"
     borderopacity="0.25"
     inkscape:showpageshadow="2"
     inkscape:pageopacity="0.0"
     inkscape:pagecheckerboard="0"
     inkscape:deskcolor="#d1d1d1"
     inkscape:zoom="9.0546875"
     inkscape:cx="25.069888"
     inkscape:cy="36.942192"
     inkscape:window-width="2560"
     inkscape:window-height="1367"
     inkscape:window-x="0"
     inkscape:window-y="0"
     inkscape:window-maximized="1"
     inkscape:current-layer="svg19" /><defs
     id="defs11"><linearGradient
       id="linearGradient1375"
       x1="22.211"
       x2="22.211"
       y1="4.0214"
       y2="59.161"
       gradientTransform="translate(67.665 24.505)"
       gradientUnits="userSpaceOnUse"><stop
         stop-color="#333"
         offset="0"
         id="stop1" /><stop
         stop-color="#484848"
         offset="1"
         id="stop2" /></linearGradient><filter
       id="n-6-9"
       x="-0.059999251"
       y="-0.059999251"
       width="1.1199985"
       height="1.1199985"
       color-interpolation-filters="sRGB"><feGaussianBlur
         stdDeviation="0.14999813"
         id="feGaussianBlur2" /></filter><filter
       id="o-5-2"
       x="-0.059999251"
       y="-0.059999251"
       width="1.1199985"
       height="1.1199985"
       color-interpolation-filters="sRGB"><feGaussianBlur
         stdDeviation="0.14999813"
         id="feGaussianBlur3" /></filter><filter
       id="l-3-6"
       x="-0.059999251"
       y="-0.059999251"
       width="1.1199985"
       height="1.1199985"
       color-interpolation-filters="sRGB"><feGaussianBlur
         stdDeviation="0.14999813"
         id="feGaussianBlur4" /></filter><linearGradient
       id="linearGradient1416"
       x1="32"
       x2="32"
       y1="40"
       y2="45.333"
       gradientTransform="matrix(1.8834 0 0 1.8834 -133.51 19.806)"
       gradientUnits="userSpaceOnUse"
       xlink:href="#a-3" /><linearGradient
       id="a-3"><stop
         stop-color="#a2a2a2"
         offset="0"
         id="stop4" /><stop
         stop-color="#d0d0d0"
         offset="1"
         id="stop5" /></linearGradient><linearGradient
       id="linearGradient1418"
       x1="32"
       x2="32"
       y1="40"
       y2="45.333"
       gradientTransform="matrix(1.8834 0 0 1.8834 -133.51 3.7466)"
       gradientUnits="userSpaceOnUse"
       xlink:href="#a-3" /><linearGradient
       id="linearGradient1420"
       x1="32"
       x2="32"
       y1="40"
       y2="45.333"
       gradientTransform="matrix(1.8834 0 0 1.8834 -133.51 34.873)"
       gradientUnits="userSpaceOnUse"
       xlink:href="#a-3" /><linearGradient
       id="linearGradient1465"
       x1="50.633"
       x2="64.116"
       y1="12.823"
       y2="25.536"
       gradientTransform="matrix(1.2599 0 0 1.2599 25.87 24.478)"
       gradientUnits="userSpaceOnUse"><stop
         stop-color="#869099"
         offset="0"
         id="stop6" /><stop
         stop-color="#4c6068"
         offset="1"
         id="stop7" /></linearGradient><linearGradient
       id="linearGradient1481"
       x1="55.678"
       x2="61.884"
       y1="6.314"
       y2="12.52"
       gradientTransform="matrix(1.2599 0 0 1.2599 24.424 37.042)"
       gradientUnits="userSpaceOnUse"><stop
         stop-color="#d2d7dc"
         offset="0"
         id="stop8" /><stop
         stop-color="#fff"
         offset="1"
         id="stop9" /></linearGradient><linearGradient
       id="linearGradient1491"
       x1="55.678"
       x2="61.884"
       y1="6.314"
       y2="12.52"
       gradientTransform="matrix(.89193 0 0 .89193 46.397 40.843)"
       gradientUnits="userSpaceOnUse"><stop
         stop-color="#006ec8"
         offset="0"
         id="stop10" /><stop
         stop-color="#0a327d"
         offset="1"
         id="stop11" /></linearGradient><linearGradient
       id="a"
       x1="318.56"
       x2="338.95"
       y1="43.832"
       y2="38.408"
       gradientTransform="matrix(0.48129426,0,0,0.48129426,-210.70907,36.153279)"
       gradientUnits="userSpaceOnUse"><stop
         stop-color="#f4587a"
         offset="0"
         id="stop1-3" /><stop
         stop-color="#f15c7c"
         offset="1"
         id="stop2-6" /></linearGradient><linearGradient
       id="b"
       x1="338.66"
       x2="361.42"
       y1="39.82"
       y2="35.21"
       gradientTransform="matrix(0.48129426,0,0,0.48129426,-210.70907,36.153279)"
       gradientUnits="userSpaceOnUse"><stop
         stop-color="#f05c7c"
         offset="0"
         id="stop3" /><stop
         stop-color="#e4618a"
         offset="1"
         id="stop4-7" /></linearGradient><linearGradient
       id="c"
       x1="353.24"
       x2="349.17"
       y1="92.659"
       y2="47.788"
       gradientTransform="matrix(0.48129426,0,0,0.48129426,-210.70907,36.153279)"
       gradientUnits="userSpaceOnUse"><stop
         stop-color="#49abf5"
         offset="0"
         id="stop5-5" /><stop
         stop-color="#4daaf6"
         offset=".302"
         id="stop6-3" /><stop
         stop-color="#7f85e1"
         offset=".566"
         id="stop7-5" /><stop
         stop-color="#ba6ab8"
         offset=".797"
         id="stop8-6" /><stop
         stop-color="#d4629f"
         stop-opacity="0"
         offset="1"
         id="stop9-2" /></linearGradient><linearGradient
       id="d"
       x1="337.89"
       x2="346.87"
       y1="97.453"
       y2="90.166"
       gradientTransform="matrix(0.48129426,0,0,0.48129426,-210.70907,36.153279)"
       gradientUnits="userSpaceOnUse"><stop
         stop-color="#5793fa"
         offset="0"
         id="stop10-9" /><stop
         stop-color="#5793fa"
         stop-opacity="0"
         offset="1"
         id="stop11-1" /></linearGradient><linearGradient
       id="e"
       x1="311.51"
       x2="324.03"
       y1="107.02"
       y2="54.408"
       gradientTransform="matrix(0.48129426,0,0,0.48129426,-210.70907,36.153279)"
       gradientUnits="userSpaceOnUse"><stop
         stop-color="#8763fe"
         offset="0"
         id="stop12" /><stop
         stop-color="#7e68fe"
         offset=".187"
         id="stop13" /><stop
         stop-color="#7d69fd"
         offset=".306"
         id="stop14" /><stop
         stop-color="#8b61f4"
         offset=".553"
         id="stop15" /><stop
         stop-color="#a359df"
         offset=".71"
         id="stop16" /><stop
         stop-color="#c754c0"
         offset=".871"
         id="stop17" /><stop
         stop-color="#de549e"
         stop-opacity="0"
         offset="1"
         id="stop18" /></linearGradient><linearGradient
       id="g"
       x1="46"
       x2="46"
       y1="60"
       y2="30"
       gradientTransform="translate(-82.465615,36.424815)"
       gradientUnits="userSpaceOnUse"><stop
         stop-color="#1e1e1e"
         offset="0"
         id="stop19" /><stop
         stop-color="#3c3c3c"
         offset="1"
         id="stop20" /></linearGradient><linearGradient
       id="i"
       x1="2331.3"
       x2="2331.3"
       y1="435.51"
       y2="45.726"
       gradientTransform="matrix(0.07774,0,0,0.07774,-149.02001,6.7177175)"
       gradientUnits="userSpaceOnUse"><stop
         stop-color="#807c76"
         offset=".058"
         id="stop21" /><stop
         stop-color="#d4d7d0"
         offset=".385"
         id="stop22" /><stop
         stop-color="#bdbfba"
         offset=".558"
         id="stop23" /><stop
         stop-color="#acb3ac"
         offset=".635"
         id="stop24" /><stop
         stop-color="#dadfda"
         offset=".75"
         id="stop25" /><stop
         stop-color="#c2c7c1"
         offset=".863"
         id="stop26" /><stop
         stop-color="#7f7a75"
         offset=".941"
         id="stop27" /></linearGradient><radialGradient
       id="f"
       cx="12.171"
       cy="12.171"
       r="4.762"
       gradientTransform="matrix(3.7796,0,0,3.7796,-82.463615,36.424815)"
       gradientUnits="userSpaceOnUse"><stop
         offset="0"
         id="stop28" /><stop
         offset=".473"
         id="stop29" /><stop
         stop-opacity="0"
         offset="1"
         id="stop30" /></radialGradient><filter
       id="h"
       x="-0.108"
       y="-0.108"
       width="1.216"
       height="1.216"
       color-interpolation-filters="sRGB"><feGaussianBlur
         stdDeviation="1.08"
         id="feGaussianBlur30" /></filter></defs><metadata
     id="metadata11"><rdf:RDF><cc:Work
         rdf:about=""><dc:format>image/svg+xml</dc:format><dc:type
           rdf:resource="http://purl.org/dc/dcmitype/StillImage" /><dc:title>深度用户反馈-128px</dc:title></cc:Work></rdf:RDF></metadata><title
     id="title11">深度用户反馈-128px</title><g
     transform="translate(-67.665 -24.505)"
     id="g19"><path
       d="m 85.165,29.005 c -7.202,0 -13,5.798 -13,13 v 29 c 0,7.202 5.798,13 13,13 h 29 c 7.202,0 13,-5.798 13,-13 v -29 c 0,-7.202 -5.798,-13 -13,-13 z"
       fill="url(#linearGradient1375)"
       image-rendering="optimizeSpeed"
       style="display:inline;paint-order:stroke fill markers"
       id="path11" /><rect
       x="77.902"
       y="34.741001"
       width="43.527"
       height="30.134001"
       ry="6.2842002"
       fill="#141414"
       image-rendering="optimizeSpeed"
       stroke-width="2.1643"
       style="display:inline;paint-order:normal"
       id="rect11" /><g
       stroke-width="1.5"
       id="g13"
       style="display:inline"><circle
         transform="matrix(0,-1.6741,1.6741,0,46.59,2.9331)"
         cx="-42"
         cy="41"
         r="3"
         filter="url(#n-6-9)"
         image-rendering="optimizeSpeed"
         opacity="0.15"
         style="paint-order:normal"
         id="circle11" /><circle
         transform="matrix(0,-1.6741,1.6741,0,46.59,2.9331)"
         cx="-42"
         cy="32"
         r="3"
         filter="url(#o-5-2)"
         image-rendering="optimizeSpeed"
         opacity="0.15"
         style="paint-order:normal"
         id="circle12" /><circle
         transform="matrix(0,-1.6741,1.6741,0,46.59,2.9331)"
         cx="-42"
         cy="22.407"
         r="3"
         filter="url(#l-3-6)"
         image-rendering="optimizeSpeed"
         opacity="0.15"
         style="paint-order:normal"
         id="circle13" /></g><g
       stroke-width="2.5112"
       id="g16"
       style="display:inline"><circle
         transform="rotate(-90)"
         cx="-73.246002"
         cy="100.16"
         r="5.0222998"
         fill="url(#linearGradient1416)"
         image-rendering="optimizeSpeed"
         style="paint-order:normal"
         id="circle14" /><path
         d="m 105.18,73.246 a 5.0223,5.0223 0 0 0 -0.68173,-2.5112 h -4.3404 a 2.5112,2.5112 0 0 0 -2.5112,2.5112 2.5112,2.5112 0 0 0 2.5112,2.5112 h 4.3455 a 5.0223,5.0223 0 0 0 0.67682,-2.5112 z"
         image-rendering="optimizeSpeed"
         opacity="0.25"
         style="paint-order:normal"
         id="path14" /><circle
         transform="rotate(-90)"
         cx="-73.246002"
         cy="84.101997"
         r="5.0222998"
         fill="url(#linearGradient1418)"
         image-rendering="optimizeSpeed"
         style="paint-order:normal"
         id="circle15" /><path
         d="m 84.102,68.223 a 5.0223,5.0223 0 0 0 -2.5112,0.68173 v 4.3405 a 2.5112,2.5112 0 0 0 2.5112,2.5112 2.5112,2.5112 0 0 0 2.5112,-2.5112 v -4.3455 A 5.0223,5.0223 0 0 0 84.102,68.22291 Z"
         image-rendering="optimizeSpeed"
         opacity="0.25"
         style="paint-order:normal"
         id="path15" /><circle
         transform="rotate(-90)"
         cx="-73.246002"
         cy="115.23"
         r="5.0222998"
         fill="url(#linearGradient1420)"
         image-rendering="optimizeSpeed"
         style="paint-order:normal"
         id="circle16" /><path
         d="m 115.23,78.268 a 5.0223,5.0223 0 0 0 2.5112,-0.68173 v -4.3405 a 2.5112,2.5112 0 0 0 -2.5112,-2.5112 2.5112,2.5112 0 0 0 -2.5112,2.5112 v 4.3455 a 5.0223,5.0223 0 0 0 2.5112,0.67682 z"
         image-rendering="optimizeSpeed"
         opacity="0.25"
         style="paint-order:normal"
         id="path16" /></g><g
       stroke-width="1.2599"
       id="g18"
       style="display:none"><path
         d="m 102.31,40.683 a 0.63231,0.61642 0 0 0 -0.0628,0.006 0.63231,0.61642 0 0 0 -0.0621,0.01096 0.63231,0.61642 0 0 0 -0.0609,0.01712 0.63231,0.61642 0 0 0 -0.0584,0.02324 0.63231,0.61642 0 0 0 -0.0559,0.02937 0.63231,0.61642 0 0 0 -0.0195,0.01096 0.63231,0.61642 0 0 0 -0.0521,0.03549 0.63231,0.61642 0 0 0 -0.0477,0.03977 0.63231,0.61642 0 0 0 -0.0439,0.04466 0.63231,0.61642 0 0 0 -0.0389,0.04834 0.63231,0.61642 0 0 0 -0.0339,0.05201 0.63231,0.61642 0 0 0 -0.0282,0.05507 0.63231,0.61642 0 0 0 -0.0226,0.0575 0.63231,0.61642 0 0 0 -0.0163,0.05997 2.1245,2.0712 0 0 1 -0.0289,0.11564 2.1245,2.0712 0 0 1 -0.0665,0.19641 2.1245,2.0712 0 0 1 -0.086,0.18967 2.1245,2.0712 0 0 1 -0.10544,0.17989 2.1245,2.0712 0 0 1 -0.12238,0.16887 2.1245,2.0712 0 0 1 -0.13996,0.15602 2.1245,2.0712 0 0 1 -0.15503,0.14134 2.1245,2.0712 0 0 1 -0.1682,0.12605 2.1245,2.0712 0 0 1 -0.18075,0.1089 2.1245,2.0712 0 0 1 -0.1908,0.09056 2.1245,2.0712 0 0 1 -0.19958,0.07159 2.1245,2.0712 0 0 1 -0.20523,0.05201 2.1245,2.0712 0 0 1 -0.21026,0.03122 2.1245,2.0712 0 0 1 -0.21213,0.01145 2.1245,2.0712 0 0 1 -0.1136,-0.0037 2.1245,2.0712 0 0 1 -0.21151,-0.02264 2.1245,2.0712 0 0 1 -0.20775,-0.04222 2.1245,2.0712 0 0 1 -0.2021,-0.06302 2.1245,2.0712 0 0 1 -0.19519,-0.08199 2.1245,2.0712 0 0 1 -0.18578,-0.10096 2.1245,2.0712 0 0 1 -0.17386,-0.11808 2.1245,2.0712 0 0 1 -0.1613,-0.13461 2.1245,2.0712 0 0 1 -0.14686,-0.14991 2.1245,2.0712 0 0 1 -0.13055,-0.16276 2.1245,2.0712 0 0 1 -0.1136,-0.175 2.1245,2.0712 0 0 1 -0.09477,-0.18539 2.1245,2.0712 0 0 1 -0.07532,-0.19395 2.1245,2.0712 0 0 1 -0.05523,-0.19947 0.63231,0.61642 0 0 0 -0.0025,-0.01236 0.63231,0.61642 0 0 0 -0.01693,-0.05937 0.63231,0.61642 0 0 0 -0.02257,-0.0575 0.63231,0.61642 0 0 0 -0.02823,-0.05507 0.63231,0.61642 0 0 0 -0.03451,-0.05201 0.63231,0.61642 0 0 0 -0.03892,-0.04834 0.63231,0.61642 0 0 0 -0.04393,-0.04466 0.63231,0.61642 0 0 0 -0.04833,-0.03977 0.63231,0.61642 0 0 0 -0.05209,-0.03489 0.61017,0.59485 0 0 0 -0.02888,-0.01652 0.61017,0.59485 0 0 0 -0.05523,-0.0251 0.61017,0.59485 0 0 0 -0.05773,-0.02018 0.61017,0.59485 0 0 0 -0.05899,-0.01406 0.61017,0.59485 0 0 0 -0.06025,-0.0079 0.61017,0.59485 0 0 0 -0.06149,-0.003 0.61017,0.59485 0 0 0 -0.06088,0.0037 0.61017,0.59485 0 0 0 -0.06025,0.0098 0.61017,0.59485 0 0 0 -0.05837,0.01531 9.9904,9.7395 0 0 0 -0.57679,0.18845 9.9904,9.7395 0 0 0 -0.91821,0.38302 9.9904,9.7395 0 0 0 -0.87428,0.47052 9.9904,9.7395 0 0 0 -0.82156,0.55313 9.9904,9.7395 0 0 0 -0.76131,0.63022 0.63231,0.61642 0 0 0 -0.0094,0.0079 0.63231,0.61642 0 0 0 -0.04268,0.04591 0.63231,0.61642 0 0 0 -0.03764,0.05017 0.63231,0.61642 0 0 0 -0.03201,0.05261 0.63231,0.61642 0 0 0 -0.02699,0.05507 0.63231,0.61642 0 0 0 -0.02135,0.05812 0.63231,0.61642 0 0 0 -0.01508,0.05997 0.63231,0.61642 0 0 0 -0.0083,0.06118 0.63231,0.61642 0 0 0 -0.0025,0.0618 0.63231,0.61642 0 0 0 0,0.0098 0.63231,0.61642 0 0 0 0.0038,0.0618 0.63231,0.61642 0 0 0 0.0102,0.06059 0.63231,0.61642 0 0 0 0.01569,0.05936 0.63231,0.61642 0 0 0 0.02256,0.05812 0.63231,0.61642 0 0 0 0.02763,0.05508 0.63231,0.61642 0 0 0 0.0339,0.05201 0.63231,0.61642 0 0 0 0.03892,0.04895 0.63231,0.61642 0 0 0 0.04331,0.04466 2.1119,2.0589 0 0 1 0.022,0.01958 2.1119,2.0589 0 0 1 0.14686,0.14807 2.1119,2.0589 0 0 1 0.13055,0.16152 2.1119,2.0589 0 0 1 0.1136,0.17377 2.1119,2.0589 0 0 1 0.09539,0.18356 2.1119,2.0589 0 0 1 0.07594,0.19213 2.1119,2.0589 0 0 1 0.05586,0.19824 2.1119,2.0589 0 0 1 0.03515,0.20314 2.1119,2.0589 0 0 1 0.01444,0.20498 2.1119,2.0589 0 0 1 -0.0064,0.20558 2.1119,2.0589 0 0 1 -0.02763,0.20436 2.1119,2.0589 0 0 1 -0.04896,0.20008 2.1119,2.0589 0 0 1 -0.06841,0.19457 2.1119,2.0589 0 0 1 -0.08849,0.18723 2.1119,2.0589 0 0 1 -0.10733,0.17744 2.1119,2.0589 0 0 1 -0.12426,0.16581 2.1119,2.0589 0 0 1 -0.14122,0.15297 2.1119,2.0589 0 0 1 -0.15566,0.13888 2.1119,2.0589 0 0 1 -0.16946,0.12237 2.1119,2.0589 0 0 1 -0.18138,0.10587 2.1119,2.0589 0 0 1 -0.19142,0.0875 2.1119,2.0589 0 0 1 -0.19896,0.06853 2.1119,2.0589 0 0 1 -0.20523,0.04894 2.1119,2.0589 0 0 1 -0.209,0.02816 2.1119,2.0589 0 0 1 -0.21089,0.0079 2.1119,2.0589 0 0 1 -0.21031,-0.01236 2.1119,2.0589 0 0 1 -0.20837,-0.03303 2.1119,2.0589 0 0 1 -0.20398,-0.05323 0.63231,0.61642 0 0 0 -0.03012,-0.0084 0.63231,0.61642 0 0 0 -0.06149,-0.01285 0.63231,0.61642 0 0 0 -0.0634,-0.0073 0.63231,0.61642 0 0 0 -0.06275,-6.13e-4 0.63231,0.61642 0 0 0 -0.0634,0.0056 0.63231,0.61642 0 0 0 -0.06214,0.01145 0.63231,0.61642 0 0 0 -0.06025,0.01712 0.63231,0.61642 0 0 0 -0.05837,0.02324 0.63231,0.61642 0 0 0 -0.05586,0.02876 0.63231,0.61642 0 0 0 -0.05273,0.03428 0.63231,0.61642 0 0 0 -0.04896,0.03917 0.63231,0.61642 0 0 0 -0.04456,0.04344 0.63231,0.61642 0 0 0 -0.04015,0.04772 0.63231,0.61642 0 0 0 -0.03451,0.0514 0.63231,0.61642 0 0 0 -0.02952,0.05446 0.63231,0.61642 0 0 0 -0.02385,0.05752 0.63231,0.61642 0 0 0 -0.01757,0.05875 9.7248,9.4806 0 0 0 -0.14372,0.66999 9.7248,9.4806 0 0 0 -0.11674,0.94104 9.7248,9.4806 0 0 0 -0.01946,0.94716 9.7248,9.4806 0 0 0 0.07782,0.94472 9.7248,9.4806 0 0 0 0.17385,0.93247 0.63231,0.61642 0 0 0 0.0069,0.02816 0.63231,0.61642 0 0 0 0.02011,0.05875 0.63231,0.61642 0 0 0 0.02574,0.05629 0.63231,0.61642 0 0 0 0.03137,0.05324 0.63231,0.61642 0 0 0 0.03704,0.05017 0.63231,0.61642 0 0 0 0.04142,0.0465 0.63231,0.61642 0 0 0 0.04644,0.04223 0.63231,0.61642 0 0 0 0.05019,0.0373 0.63231,0.61642 0 0 0 0.05337,0.03243 0.63231,0.61642 0 0 0 0.05711,0.02631 0.63231,0.61642 0 0 0 0.05963,0.02143 0.63231,0.61642 0 0 0 0.06088,0.01531 0.63231,0.61642 0 0 0 0.06276,0.0092 0.63231,0.61642 0 0 0 0.06275,0.003 0.63231,0.61642 0 0 0 0.06339,-0.003 0.63231,0.61642 0 0 0 0.06277,-0.0092 0.63231,0.61642 0 0 0 0.06089,-0.01466 2.1119,2.0589 0 0 1 0.03201,-0.0098 2.1119,2.0589 0 0 1 0.20523,-0.04834 2.1119,2.0589 0 0 1 0.209,-0.02816 2.1119,2.0589 0 0 1 0.21089,-0.0073 2.1119,2.0589 0 0 1 0.21088,0.01285 2.1119,2.0589 0 0 1 0.20837,0.03364 2.1119,2.0589 0 0 1 0.20397,0.05323 2.1119,2.0589 0 0 1 0.19708,0.07282 2.1119,2.0589 0 0 1 0.18892,0.09239 2.1119,2.0589 0 0 1 0.17887,0.10952 2.1119,2.0589 0 0 1 0.16631,0.12665 2.1119,2.0589 0 0 1 0.15252,0.14257 2.1119,2.0589 0 0 1 0.13745,0.15602 2.1119,2.0589 0 0 1 0.1205,0.16887 2.1119,2.0589 0 0 1 0.1023,0.17988 2.1119,2.0589 0 0 1 0.0841,0.18907 2.1119,2.0589 0 0 1 0.06338,0.1958 2.1119,2.0589 0 0 1 0.04393,0.20192 2.1119,2.0589 0 0 1 0.02257,0.20436 2.1119,2.0589 0 0 1 0.0019,0.20558 2.1119,2.0589 0 0 1 -0.01946,0.20498 2.1119,2.0589 0 0 1 -0.04079,0.20192 2.1119,2.0589 0 0 1 -0.06024,0.19764 2.1119,2.0589 0 0 1 -0.08097,0.18967 2.1119,2.0589 0 0 1 -0.09979,0.18172 2.1119,2.0589 0 0 1 -0.118,0.17071 2.1119,2.0589 0 0 1 -0.13431,0.15848 2.1119,2.0589 0 0 1 -0.15063,0.1444 0.63231,0.61642 0 0 0 -0.01259,0.01096 0.63231,0.61642 0 0 0 -0.0433,0.04466 0.63231,0.61642 0 0 0 -0.03955,0.04834 0.63231,0.61642 0 0 0 -0.0339,0.05201 0.63231,0.61642 0 0 0 -0.02823,0.05446 0.63231,0.61642 0 0 0 -0.02256,0.0575 0.63231,0.61642 0 0 0 -0.01693,0.05997 0.63231,0.61642 0 0 0 -0.0107,0.06058 0.63231,0.61642 0 0 0 -0.0038,0.06118 0.63231,0.61642 0 0 0 0,0.01591 0.63231,0.61642 0 0 0 0.0038,0.0618 0.63231,0.61642 0 0 0 0.0102,0.06059 0.63231,0.61642 0 0 0 0.01569,0.05937 0.63231,0.61642 0 0 0 0.0226,0.05812 0.63231,0.61642 0 0 0 0.02763,0.05507 0.63231,0.61642 0 0 0 0.0339,0.05201 0.63231,0.61642 0 0 0 0.03892,0.04894 0.63231,0.61642 0 0 0 0.04331,0.04466 10.044,9.7919 0 0 0 0.42113,0.37323 10.044,9.7919 0 0 0 0.79332,0.59963 10.044,9.7919 0 0 0 0.85043,0.52008 10.044,9.7919 0 0 0 0.90002,0.43381 10.044,9.7919 0 0 0 0.93955,0.34447 0.63231,0.61642 0 0 0 0.01757,0.0056 0.63231,0.61642 0 0 0 0.0615,0.01346 0.63231,0.61642 0 0 0 0.06275,0.0073 0.63231,0.61642 0 0 0 0.06277,0.0018 0.63231,0.61642 0 0 0 0.06339,-0.0048 0.63231,0.61642 0 0 0 0.06214,-0.01096 0.63231,0.61642 0 0 0 0.06089,-0.01652 0.63231,0.61642 0 0 0 0.05837,-0.02264 0.63231,0.61642 0 0 0 0.05649,-0.02816 0.63231,0.61642 0 0 0 0.0226,-0.01236 0.63231,0.61642 0 0 0 0.05272,-0.03428 0.63231,0.61642 0 0 0 0.04896,-0.03855 0.63231,0.61642 0 0 0 0.04456,-0.04343 0.63231,0.61642 0 0 0 0.04079,-0.04772 0.63231,0.61642 0 0 0 0.03451,-0.05079 0.63231,0.61642 0 0 0 0.03012,-0.05446 0.63231,0.61642 0 0 0 0.02385,-0.0575 0.63231,0.61642 0 0 0 0.01822,-0.05875 2.1213,2.0681 0 0 1 0.02256,-0.08994 2.1213,2.0681 0 0 1 0.06653,-0.19641 2.1213,2.0681 0 0 1 0.08597,-0.18907 2.1213,2.0681 0 0 1 0.10482,-0.17928 2.1213,2.0681 0 0 1 0.12238,-0.16887 2.1213,2.0681 0 0 1 0.13933,-0.15542 2.1213,2.0681 0 0 1 0.1544,-0.14195 2.1213,2.0681 0 0 1 0.16884,-0.12543 2.1213,2.0681 0 0 1 0.18014,-0.1089 2.1213,2.0681 0 0 1 0.19079,-0.09056 2.1213,2.0681 0 0 1 0.19896,-0.07159 2.1213,2.0681 0 0 1 0.20523,-0.05201 2.1213,2.0681 0 0 1 0.20963,-0.03118 2.1213,2.0681 0 0 1 0.21152,-0.01145 h 0.0251 a 2.1213,2.0681 0 0 1 0.1205,0.0056 2.1213,2.0681 0 0 1 0.21089,0.0251 2.1213,2.0681 0 0 1 0.2065,0.04527 2.1213,2.0681 0 0 1 0.20146,0.06486 2.1213,2.0681 0 0 1 0.19331,0.08505 2.1213,2.0681 0 0 1 0.18389,0.10279 2.1213,2.0681 0 0 1 0.1726,0.12053 2.1213,2.0681 0 0 1 0.15941,0.13644 2.1213,2.0681 0 0 1 0.14435,0.15113 2.1213,2.0681 0 0 1 0.12804,0.16459 2.1213,2.0681 0 0 1 0.11108,0.17622 2.1213,2.0681 0 0 1 0.0916,0.18662 2.1213,2.0681 0 0 1 0.0728,0.19397 2.1213,2.0681 0 0 1 0.0521,0.20008 0.63231,0.61642 0 0 0 0.004,0.01712 0.63231,0.61642 0 0 0 0.0169,0.05937 0.63231,0.61642 0 0 0 0.0232,0.0575 0.63231,0.61642 0 0 0 0.0289,0.05446 0.63231,0.61642 0 0 0 0.0339,0.05201 0.63231,0.61642 0 0 0 0.0396,0.04834 0.63231,0.61642 0 0 0 0.0446,0.04406 0.63231,0.61642 0 0 0 0.0483,0.03977 0.63231,0.61642 0 0 0 0.0521,0.03428 0.63231,0.61642 0 0 0 0.0289,0.01652 0.63231,0.61642 0 0 0 0.0571,0.02691 0.63231,0.61642 0 0 0 0.059,0.02143 0.63231,0.61642 0 0 0 0.0615,0.01531 0.63231,0.61642 0 0 0 0.0621,0.0092 0.63231,0.61642 0 0 0 0.0634,0.0037 0.63231,0.61642 0 0 0 0.0577,-0.0062 0.63231,0.61642 0 0 0 0.0621,-0.01285 0.63231,0.61642 0 0 0 0.0602,-0.01837 10.006,9.755 0 0 0 0.56675,-0.175 10.006,9.755 0 0 0 0.92637,-0.36834 10.006,9.755 0 0 0 0.88432,-0.45584 10.006,9.755 0 0 0 0.83286,-0.54028 10.006,9.755 0 0 0 0.77323,-0.61797 0.63231,0.61642 0 0 0 0.0132,-0.01236 0.63231,0.61642 0 0 0 0.0439,-0.04466 0.63231,0.61642 0 0 0 0.0383,-0.04895 0.63231,0.61642 0 0 0 0.0333,-0.05201 0.63231,0.61642 0 0 0 0.0284,-0.0557 0.63231,0.61642 0 0 0 0.0219,-0.0575 0.63231,0.61642 0 0 0 0.0162,-0.05937 0.63231,0.61642 0 0 0 0.0102,-0.06118 0.63231,0.61642 0 0 0 0.003,-0.06119 0.63231,0.61642 0 0 0 0,-0.02018 0.63231,0.61642 0 0 0 -0.005,-0.06118 0.63231,0.61642 0 0 0 -0.0113,-0.06058 0.63231,0.61642 0 0 0 -0.0174,-0.05937 0.63231,0.61642 0 0 0 -0.0231,-0.0575 0.63231,0.61642 0 0 0 -0.0295,-0.05446 0.63231,0.61642 0 0 0 -0.0344,-0.0514 0.63231,0.61642 0 0 0 -0.0395,-0.04772 0.63231,0.61642 0 0 0 -0.0446,-0.04406 2.115,2.0619 0 0 1 -0.0458,-0.04225 2.115,2.0619 0 0 1 -0.1431,-0.15174 2.115,2.0619 0 0 1 -0.12676,-0.16431 2.115,2.0619 0 0 1 -0.10984,-0.17622 2.115,2.0619 0 0 1 -0.091,-0.18601 2.115,2.0619 0 0 1 -0.0716,-0.19395 2.115,2.0619 0 0 1 -0.0508,-0.20008 2.115,2.0619 0 0 1 -0.0306,-0.20436 2.115,2.0619 0 0 1 -0.009,-0.20558 2.115,2.0619 0 0 1 0.0117,-0.2062 2.115,2.0619 0 0 1 0.0325,-0.20314 2.115,2.0619 0 0 1 0.0534,-0.19947 2.115,2.0619 0 0 1 0.074,-0.19335 2.115,2.0619 0 0 1 0.0929,-0.1854 2.115,2.0619 0 0 1 0.11108,-0.175 2.115,2.0619 0 0 1 0.1293,-0.16337 2.115,2.0619 0 0 1 0.14498,-0.1499 2.115,2.0619 0 0 1 0.15943,-0.13522 2.115,2.0619 0 0 1 0.17261,-0.1187 2.115,2.0619 0 0 1 0.18388,-0.10156 2.115,2.0619 0 0 1 0.19333,-0.08321 2.115,2.0619 0 0 1 0.20084,-0.06424 2.115,2.0619 0 0 1 0.20713,-0.04406 2.115,2.0619 0 0 1 0.20961,-0.02385 2.115,2.0619 0 0 1 0.21151,-0.003 2.115,2.0619 0 0 1 0.2109,0.01776 2.115,2.0619 0 0 1 0.20777,0.03794 2.115,2.0619 0 0 1 0.20273,0.0575 0.63231,0.61642 0 0 0 0.0189,0.0062 0.63231,0.61642 0 0 0 0.0609,0.01591 0.63231,0.61642 0 0 0 0.0621,0.0098 0.63231,0.61642 0 0 0 0.0634,0.0037 0.63231,0.61642 0 0 0 0.0627,-0.0025 0.63231,0.61642 0 0 0 0.0628,-0.0086 0.63231,0.61642 0 0 0 0.0615,-0.01467 0.63231,0.61642 0 0 0 0.0596,-0.02018 0.63231,0.61642 0 0 0 0.0571,-0.02631 0.63231,0.61642 0 0 0 0.0174,-0.0098 0.63231,0.61642 0 0 0 0.0534,-0.03303 0.63231,0.61642 0 0 0 0.0496,-0.03855 0.63231,0.61642 0 0 0 0.0452,-0.04281 0.63231,0.61642 0 0 0 0.0408,-0.04712 0.63231,0.61642 0 0 0 0.0359,-0.05079 0.63231,0.61642 0 0 0 0.0306,-0.05383 0.63231,0.61642 0 0 0 0.0246,-0.05689 0.63231,0.61642 0 0 0 0.0189,-0.05875 9.8355,9.5885 0 0 0 0.14624,-0.64123 9.8355,9.5885 0 0 0 0.13179,-0.94961 9.8355,9.5885 0 0 0 0.034,-0.95817 9.8355,9.5885 0 0 0 -0.0646,-0.95634 9.8355,9.5885 0 0 0 -0.16192,-0.94532 0.63231,0.61642 0 0 0 -0.005,-0.01776 0.63231,0.61642 0 0 0 -0.0174,-0.05935 0.63231,0.61642 0 0 0 -0.0238,-0.05689 0.63231,0.61642 0 0 0 -0.0302,-0.05446 0.63231,0.61642 0 0 0 -0.0344,-0.0514 0.63231,0.61642 0 0 0 -0.0401,-0.04772 0.63231,0.61642 0 0 0 -0.0452,-0.04343 0.63231,0.61642 0 0 0 -0.0489,-0.03855 0.63231,0.61642 0 0 0 -0.0527,-0.03428 0.63231,0.61642 0 0 0 -0.0159,-0.0084 0.63231,0.61642 0 0 0 -0.0571,-0.02631 0.63231,0.61642 0 0 0 -0.059,-0.02143 0.63231,0.61642 0 0 0 -0.0615,-0.01466 0.63231,0.61642 0 0 0 -0.0621,-0.0092 0.63231,0.61642 0 0 0 -0.0634,-0.003 0.63231,0.61642 0 0 0 -0.0634,0.003 0.63231,0.61642 0 0 0 -0.0621,0.0092 0.63231,0.61642 0 0 0 -0.0615,0.01591 2.115,2.0619 0 0 1 -0.10232,0.02937 2.115,2.0619 0 0 1 -0.20648,0.04281 2.115,2.0619 0 0 1 -0.21026,0.02324 2.115,2.0619 0 0 1 -0.2115,0.0025 2.115,2.0619 0 0 1 -0.21045,-0.01837 2.115,2.0619 0 0 1 -0.20777,-0.03855 2.115,2.0619 0 0 1 -0.20273,-0.05875 2.115,2.0619 0 0 1 -0.19583,-0.07771 2.115,2.0619 0 0 1 -0.18641,-0.09668 2.115,2.0619 0 0 1 -0.17635,-0.11442 2.115,2.0619 0 0 1 -0.16317,-0.13094 2.115,2.0619 0 0 1 -0.14876,-0.14623 2.115,2.0619 0 0 1 -0.13369,-0.1603 2.115,2.0619 0 0 1 -0.11611,-0.17193 2.115,2.0619 0 0 1 -0.0979,-0.18294 2.115,2.0619 0 0 1 -0.0791,-0.19089 2.115,2.0619 0 0 1 -0.059,-0.19825 2.115,2.0619 0 0 1 -0.0383,-0.20252 2.115,2.0619 0 0 1 -0.017,-0.20558 2.115,2.0619 0 0 1 0.003,-0.20558 2.115,2.0619 0 0 1 0.0249,-0.20498 2.115,2.0619 0 0 1 0.0458,-0.2013 2.115,2.0619 0 0 1 0.0659,-0.1958 2.115,2.0619 0 0 1 0.086,-0.18845 2.115,2.0619 0 0 1 0.10421,-0.17866 2.115,2.0619 0 0 1 0.12238,-0.16827 2.115,2.0619 0 0 1 0.13935,-0.15542 2.115,2.0619 0 0 1 0.1544,-0.14073 0.65127,0.63492 0 0 0 0.004,-0.0037 0.65127,0.63492 0 0 0 0.0465,-0.04406 0.65127,0.63492 0 0 0 0.0414,-0.04896 0.65127,0.63492 0 0 0 0.0363,-0.05262 0.65127,0.63492 0 0 0 0.0306,-0.05567 0.65127,0.63492 0 0 0 0.025,-0.05875 0.65127,0.63492 0 0 0 0.0189,-0.06118 0.65127,0.63492 0 0 0 0.0125,-0.0618 0.65127,0.63492 0 0 0 0.006,-0.06362 0.63231,0.61642 0 0 0 6.3e-4,-0.01591 0.63231,0.61642 0 0 0 -0.003,-0.0618 0.63231,0.61642 0 0 0 -0.009,-0.06119 0.63231,0.61642 0 0 0 -0.0151,-0.05935 0.63231,0.61642 0 0 0 -0.0212,-0.05812 0.63231,0.61642 0 0 0 -0.0276,-0.05567 0.63231,0.61642 0 0 0 -0.0325,-0.05262 0.63231,0.61642 0 0 0 -0.0383,-0.04895 0.63231,0.61642 0 0 0 -0.0427,-0.04527 10.047,9.795 0 0 0 -0.61349,-0.53839 10.047,9.795 0 0 0 -0.80462,-0.58616 10.047,9.795 0 0 0 -0.86047,-0.50479 10.047,9.795 0 0 0 -0.90755,-0.41851 10.047,9.795 0 0 0 -0.94647,-0.32857 0.63231,0.61642 0 0 0 -0.0182,-0.0049 0.63231,0.61642 0 0 0 -0.0615,-0.01285 0.63231,0.61642 0 0 0 -0.0628,-0.0067 0.63231,0.61642 0 0 0 -0.0634,-6.1e-4 z M 92.044,51.399 a 3.3765,3.2918 0 0 1 0.327,0.0826 3.3765,3.2918 0 0 1 0.31695,0.1138 A 3.3765,3.2918 0 0 0 92.371,51.4816 3.3765,3.2918 0 0 0 92.044,51.399 Z m 0.94709,0.3402 a 3.3765,3.2918 0 0 1 0.28745,0.17255 3.3765,3.2918 0 0 1 0.268,0.20008 3.3765,3.2918 0 0 0 -0.268,-0.20008 3.3765,3.2918 0 0 0 -0.28745,-0.17255 z m 7.2548,4.3803 a 3.3954,3.3102 0 0 1 0.32761,0.08751 3.3954,3.3102 0 0 0 -0.32761,-0.08751 z m 0.64394,0.2068 a 3.3954,3.3102 0 0 1 0.30315,0.14929 3.3954,3.3102 0 0 0 -0.30315,-0.14929 z m 0.85546,0.53232 a 3.3954,3.3102 0 0 1 0.24414,0.23006 3.3954,3.3102 0 0 0 -0.24414,-0.23006 z m -6.9786,0.23923 a 8.6847,8.4666 0 0 0 0.74122,0.44116 8.6847,8.4666 0 0 1 -0.74122,-0.44116 z"
         fill="url(#linearGradient1465)"
         opacity="0.8"
         id="path17" /><circle
         cx="99.666"
         cy="50.057999"
         r="5.1072998"
         fill="url(#linearGradient1481)"
         opacity="0.8"
         id="circle17" /><circle
         cx="99.666"
         cy="50.057999"
         r="3.6157999"
         fill="url(#linearGradient1491)"
         opacity="0.8"
         id="circle18" /></g></g><path
     class="shp86"
     d="m 38.385,15.454718 -0.501,1.34 a 0.243,0.243 0 0 0 0.074,0.26 l 0.59,0.452 a 0.246,0.246 0 0 0 0.272,0.004 l 1.163,-0.83 a 0.207,0.207 0 0 1 0.259,0.022 l 0.487,0.487 a 0.206,0.206 0 0 1 0.022,0.258 l -0.83,1.163 a 0.243,0.243 0 0 0 0.004,0.272 l 0.453,0.59 a 0.245,0.245 0 0 0 0.26,0.074 l 1.339,-0.501 a 0.206,0.206 0 0 1 0.243,0.088 l 0.345,0.596 a 0.205,0.205 0 0 1 -0.046,0.255 l -1.104,0.909 a 0.242,0.242 0 0 0 -0.066,0.264 l 0.283,0.686 c 0.035,0.084 0.14,0.149 0.234,0.14 l 1.423,-0.138 a 0.207,0.207 0 0 1 0.213,0.147 l 0.178,0.666 a 0.205,0.205 0 0 1 -0.11,0.234 l -1.302,0.592 a 0.242,0.242 0 0 0 -0.132,0.238 l 0.097,0.736 c 0.011,0.09 0.097,0.18 0.19,0.196 l 1.41,0.234 a 0.207,0.207 0 0 1 0.167,0.198 v 0.689 a 0.205,0.205 0 0 1 -0.167,0.197 l -1.409,0.235 a 0.241,0.241 0 0 0 -0.189,0.195 l -0.096,0.737 a 0.247,0.247 0 0 0 0.132,0.238 l 1.3,0.592 a 0.208,0.208 0 0 1 0.11,0.234 l -0.178,0.665 a 0.206,0.206 0 0 1 -0.213,0.148 l -1.422,-0.138 a 0.242,0.242 0 0 0 -0.233,0.14 l -0.285,0.687 a 0.244,0.244 0 0 0 0.066,0.263 l 1.104,0.909 c 0.072,0.06 0.093,0.173 0.045,0.255 l -0.344,0.596 a 0.206,0.206 0 0 1 -0.244,0.088 l -1.34,-0.501 a 0.243,0.243 0 0 0 -0.26,0.074 l -0.452,0.59 a 0.246,0.246 0 0 0 -0.004,0.273 l 0.83,1.163 a 0.207,0.207 0 0 1 -0.022,0.258 l -0.487,0.487 a 0.206,0.206 0 0 1 -0.258,0.022 l -1.163,-0.83 a 0.243,0.243 0 0 0 -0.272,0.004 l -0.59,0.453 a 0.245,0.245 0 0 0 -0.075,0.261 l 0.502,1.338 a 0.206,0.206 0 0 1 -0.088,0.243 l -0.596,0.345 a 0.205,0.205 0 0 1 -0.255,-0.046 l -0.91,-1.104 a 0.242,0.242 0 0 0 -0.263,-0.066 l -0.686,0.284 a 0.246,0.246 0 0 0 -0.14,0.233 l 0.138,1.423 a 0.207,0.207 0 0 1 -0.147,0.214 l -0.666,0.178 a 0.205,0.205 0 0 1 -0.234,-0.11 l -0.592,-1.303 a 0.242,0.242 0 0 0 -0.238,-0.132 l -0.736,0.097 a 0.245,0.245 0 0 0 -0.196,0.19 l -0.234,1.41 a 0.207,0.207 0 0 1 -0.198,0.167 h -0.689 a 0.205,0.205 0 0 1 -0.197,-0.167 l -0.235,-1.409 a 0.241,0.241 0 0 0 -0.195,-0.189 l -0.737,-0.096 a 0.247,0.247 0 0 0 -0.238,0.132 l -0.592,1.3 a 0.208,0.208 0 0 1 -0.234,0.11 l -0.665,-0.178 a 0.206,0.206 0 0 1 -0.148,-0.213 l 0.138,-1.422 a 0.242,0.242 0 0 0 -0.14,-0.233 l -0.687,-0.285 a 0.244,0.244 0 0 0 -0.263,0.066 l -0.91,1.104 a 0.207,0.207 0 0 1 -0.254,0.046 l -0.596,-0.345 a 0.206,0.206 0 0 1 -0.088,-0.244 l 0.501,-1.34 a 0.243,0.243 0 0 0 -0.074,-0.26 l -0.59,-0.452 a 0.246,0.246 0 0 0 -0.273,-0.004 l -1.163,0.83 a 0.207,0.207 0 0 1 -0.258,-0.021 l -0.487,-0.488 a 0.206,0.206 0 0 1 -0.022,-0.258 l 0.83,-1.162 a 0.243,0.243 0 0 0 -0.004,-0.272 l -0.453,-0.59 a 0.245,0.245 0 0 0 -0.261,-0.075 l -1.338,0.501 a 0.206,0.206 0 0 1 -0.244,-0.088 l -0.344,-0.596 a 0.205,0.205 0 0 1 0.046,-0.255 l 1.104,-0.909 a 0.242,0.242 0 0 0 0.066,-0.263 l -0.284,-0.687 a 0.246,0.246 0 0 0 -0.233,-0.14 l -1.423,0.139 a 0.207,0.207 0 0 1 -0.213,-0.148 l -0.179,-0.666 a 0.205,0.205 0 0 1 0.11,-0.234 l 1.303,-0.592 a 0.242,0.242 0 0 0 0.132,-0.238 l -0.097,-0.736 a 0.245,0.245 0 0 0 -0.19,-0.195 l -1.41,-0.235 A 0.207,0.207 0 0 1 20,25.777718 v -0.69 c 0,-0.095 0.075,-0.182 0.167,-0.197 l 1.409,-0.235 a 0.241,0.241 0 0 0 0.189,-0.195 l 0.096,-0.737 a 0.247,0.247 0 0 0 -0.132,-0.238 l -1.3,-0.591 a 0.208,0.208 0 0 1 -0.11,-0.234 l 0.178,-0.666 a 0.206,0.206 0 0 1 0.213,-0.148 l 1.422,0.138 a 0.242,0.242 0 0 0 0.233,-0.14 l 0.285,-0.686 a 0.244,0.244 0 0 0 -0.066,-0.264 l -1.104,-0.909 a 0.207,0.207 0 0 1 -0.046,-0.255 l 0.345,-0.596 a 0.206,0.206 0 0 1 0.244,-0.088 l 1.34,0.502 a 0.242,0.242 0 0 0 0.26,-0.075 l 0.452,-0.59 a 0.246,0.246 0 0 0 0.004,-0.272 l -0.83,-1.163 a 0.207,0.207 0 0 1 0.022,-0.258 l 0.487,-0.488 a 0.206,0.206 0 0 1 0.258,-0.022 l 1.162,0.83 a 0.243,0.243 0 0 0 0.273,-0.004 l 0.59,-0.453 a 0.245,0.245 0 0 0 0.074,-0.26 l -0.501,-1.339 a 0.206,0.206 0 0 1 0.088,-0.243 l 0.596,-0.345 a 0.205,0.205 0 0 1 0.255,0.046 l 0.909,1.104 a 0.24,0.24 0 0 0 0.263,0.066 l 0.687,-0.283 a 0.246,0.246 0 0 0 0.14,-0.234 l -0.139,-1.423 a 0.207,0.207 0 0 1 0.148,-0.213 l 0.666,-0.178 a 0.205,0.205 0 0 1 0.234,0.11 l 0.592,1.302 a 0.242,0.242 0 0 0 0.238,0.133 l 0.736,-0.098 a 0.245,0.245 0 0 0 0.195,-0.19 l 0.235,-1.41 a 0.207,0.207 0 0 1 0.198,-0.167 h 0.688 c 0.096,0 0.183,0.075 0.198,0.167 l 0.235,1.41 a 0.241,0.241 0 0 0 0.195,0.188 l 0.737,0.096 a 0.247,0.247 0 0 0 0.238,-0.132 l 0.591,-1.3 a 0.208,0.208 0 0 1 0.234,-0.11 l 0.666,0.178 c 0.092,0.025 0.157,0.12 0.148,0.213 l -0.138,1.422 a 0.242,0.242 0 0 0 0.14,0.233 l 0.686,0.286 a 0.244,0.244 0 0 0 0.264,-0.067 l 0.909,-1.104 a 0.207,0.207 0 0 1 0.255,-0.045 l 0.596,0.344 c 0.083,0.048 0.12,0.156 0.088,0.244 z m -2.283,2.854 a 8.199,8.199 0 0 0 -6.135,-0.85 c -0.386,0.097 -0.16,0.044 -0.16,0.044 -0.537,0.183 -0.752,0.738 -0.48,1.232 0,0 -0.157,-0.285 0.012,0.022 l 2.413,4.403 c 0.364,0.663 1.273,1.19 2.03,1.174 l 5.35,-0.112 c 0.33,-0.007 0,0 0,0 0.548,-0.011 0.905,-0.473 0.785,-0.99 a 8.202,8.202 0 0 0 -3.814,-4.923 z m -0.134,14.318 a 8.2,8.2 0 0 0 3.889,-4.822 c 0.115,-0.381 0.044,-0.16 0.044,-0.16 0.12,-0.555 -0.245,-1.024 -0.809,-1.046 l -0.025,-0.001 -5.016,-0.2 c -0.756,-0.03 -1.675,0.479 -2.052,1.137 l -2.66,4.642 c -0.164,0.288 0,0 0,0 -0.272,0.476 -0.06,1.02 0.445,1.184 0,0 -0.319,-0.089 0,0 a 8.2,8.2 0 0 0 6.184,-0.734 z m -9.733,-1.31 c 0.394,0.355 0.972,0.267 1.248,-0.208 0,0 -0.166,0.287 0,0 l 2.69,-4.624 c 0.38,-0.655 0.362,-1.705 -0.042,-2.345 l -2.68,-4.245 c -0.188,-0.296 -0.014,-0.021 -0.014,-0.021 -0.3,-0.477 -0.89,-0.558 -1.31,-0.177 0,0 0.156,-0.172 -0.117,0.119 a 8.203,8.203 0 0 0 -2.23,5.778 8.199,8.199 0 0 0 2.456,5.722 z"
     fill="url(#i)"
     id="path37"
     style="fill:url(#i);image-rendering:optimizeSpeed" /></svg>
